<svg xmlns="http://www.w3.org/2000/svg" width="21" height="24" viewBox="0 0 21 24" fill="none">
  <path d="M17.094 8.71221V7.26596C17.094 4.14206 16.4115 0 10.5 0C4.5885 0 3.906 4.14206 3.906 7.26596V8.71221C0.966 9.11716 0 10.7601 0 14.798V16.95C0 21.6937 1.3125 23.14 5.6175 23.14H15.3825C19.6875 23.14 21 21.6937 21 16.95V14.798C21 10.7601 20.034 9.11716 17.094 8.71221ZM10.5 19.3682C8.7465 19.3682 7.329 17.7947 7.329 15.874C7.329 13.9418 8.757 12.3799 10.5 12.3799C12.243 12.3799 13.671 13.9534 13.671 15.874C13.671 17.8062 12.2535 19.3682 10.5 19.3682ZM5.6175 8.60808C5.5335 8.60808 5.46 8.60808 5.376 8.60808V7.26596C5.376 3.87595 6.2475 1.6198 10.5 1.6198C14.7525 1.6198 15.624 3.87595 15.624 7.26596V8.61965C15.54 8.61965 15.4665 8.61965 15.3825 8.61965H5.6175V8.60808Z" fill="#9B94CB"/>
</svg>