<svg xmlns="http://www.w3.org/2000/svg" width="21" height="19" viewBox="0 0 21 19" fill="none">
  <path d="M15.75 0H5.25C2.1 0 0 1.64726 0 5.49088V13.1781C0 17.0217 2.1 18.669 5.25 18.669H15.75C18.9 18.669 21 17.0217 21 13.1781V5.49088C21 1.64726 18.9 0 15.75 0ZM16.2435 6.68789L12.957 9.43334C12.264 10.0154 11.382 10.3009 10.5 10.3009C9.618 10.3009 8.7255 10.0154 8.043 9.43334L4.7565 6.68789C4.4205 6.40237 4.368 5.87524 4.6305 5.52383C4.9035 5.17241 5.397 5.10652 5.733 5.39205L9.0195 8.13749C9.8175 8.80737 11.172 8.80737 11.97 8.13749L15.2565 5.39205C15.5925 5.10652 16.0965 5.16143 16.359 5.52383C16.632 5.87524 16.5795 6.40237 16.2435 6.68789Z" fill="#9B94CB"/>
</svg>